<?xml version="1.0" encoding="UTF-8" standalone="no"?>
<svg
   xmlns:dc="http://purl.org/dc/elements/1.1/"
   xmlns:cc="http://creativecommons.org/ns#"
   xmlns:rdf="http://www.w3.org/1999/02/22-rdf-syntax-ns#"
   xmlns:svg="http://www.w3.org/2000/svg"
   xmlns="http://www.w3.org/2000/svg"
   width="297"
   height="210"
   viewBox="0 0 297 210"
   version="1.1"
   id="svg8">
  <defs
     id="defs2" />
  <metadata
     id="metadata5">
    <rdf:RDF>
      <cc:Work
         rdf:about="">
        <dc:format>image/svg+xml</dc:format>
        <dc:type
           rdf:resource="http://purl.org/dc/dcmitype/StillImage" />
        <dc:title></dc:title>
      </cc:Work>
    </rdf:RDF>
  </metadata>
  <g
     id="layer1"
     transform="translate(0,-87)">
    <rect
       style="opacity:1;fill:#00ffff;fill-opacity:1;stroke:none;stroke-width:0.26499999;stroke-miterlimit:4;stroke-dasharray:none;stroke-opacity:1"
       id="rect833"
       width="329.59521"
       height="154.21428"
       x="-12.473214"
       y="74.372025" />
    <ellipse
       style="opacity:1;fill:#008000;fill-opacity:1;stroke:#000000;stroke-width:0.26499999;stroke-miterlimit:4;stroke-dasharray:none;stroke-opacity:1"
       id="path823"
       cx="34.58482"
       cy="231.23215"
       rx="51.59375"
       ry="50.270832" />
    <ellipse
       style="opacity:1;fill:#008000;fill-opacity:1;stroke:#000000;stroke-width:0.26499999;stroke-miterlimit:4;stroke-dasharray:none;stroke-opacity:1"
       id="path825"
       cx="165.74255"
       cy="214.97917"
       rx="40.254463"
       ry="39.309525" />
    <ellipse
       style="opacity:1;fill:#008000;fill-opacity:1;stroke:#000000;stroke-width:0.26499999;stroke-miterlimit:4;stroke-dasharray:none;stroke-opacity:1"
       id="path827"
       cx="281.0253"
       cy="224.61757"
       rx="70.492554"
       ry="32.694939" />
    <ellipse
       style="opacity:1;fill:#00ff00;fill-opacity:1;stroke:#000000;stroke-width:0.26499999;stroke-miterlimit:4;stroke-dasharray:none;stroke-opacity:1"
       id="path829"
       cx="116.79464"
       cy="219.89287"
       rx="49.136902"
       ry="46.49107" />
    <ellipse
       style="opacity:1;fill:#00ff00;fill-opacity:1;stroke:#000000;stroke-width:0.26499999;stroke-miterlimit:4;stroke-dasharray:none;stroke-opacity:1"
       id="path831"
       cx="204.29614"
       cy="215.73512"
       rx="20.599701"
       ry="16.630953" />
    <rect
       style="opacity:1;fill:#00ff00;fill-opacity:1;stroke:none;stroke-width:0.26499999;stroke-miterlimit:4;stroke-dasharray:none;stroke-opacity:1"
       id="rect819"
       width="335.26486"
       height="96.761909"
       x="-15.875"
       y="211.57738" />
    <path
       style="opacity:1;fill:#782121;fill-opacity:1;stroke:#000000;stroke-width:0.26888445;stroke-miterlimit:4;stroke-dasharray:none;stroke-opacity:1"
       d="m 76.415274,298.88622 c 0,-0.0455 27.202206,-12.45655 60.449346,-27.58019 33.24715,-15.12363 60.45293,-27.56761 60.45729,-27.65327 0.004,-0.0857 -7.20458,-7.31781 -16.01986,-16.07142 l -16.0278,-15.91566 3.22633,-0.0767 3.22633,-0.0767 30.4624,15.14291 c 16.75432,8.32859 30.59854,15.28881 30.76493,15.46715 0.16638,0.17835 4.72984,12.94644 10.14101,28.37355 5.41118,15.42711 9.89574,28.14463 9.9657,28.26118 0.07,0.11654 -39.6467,0.21189 -88.25924,0.21189 -48.61255,0 -88.386436,-0.0372 -88.386436,-0.0827 z"
       id="path849" />
    <path
       style="opacity:1;fill:#008000;fill-opacity:1;stroke:#000000;stroke-width:0.26499999;stroke-miterlimit:4;stroke-dasharray:none;stroke-opacity:1"
       id="path1313"
       d="m 166.94501,217.60699 c -0.99378,0.86917 -1.66646,2.03044 -2.42093,3.09734 -0.80739,1.14177 -0.83912,1.16139 -1.68585,2.2665 -0.84963,1.03599 -1.71414,2.05583 -2.75737,2.90462 -0.82616,0.67218 -1.75156,1.19152 -2.66756,1.72648 -1.85924,1.06561 -3.71812,2.13185 -5.57773,3.19681 -1.1607,0.66472 4.65354,-2.6397 3.48101,-1.99606 -0.39062,0.21443 -5.10431,3.07736 -7.2021,3.93147 -1.12831,0.45938 -1.55614,0.52659 -2.73424,0.82914 -3.21297,0.68061 -6.48233,0.95067 -9.7571,1.09267 -3.57661,0.2363 -7.14343,-0.12809 -10.6772,-0.65512 -1.35085,-0.20146 -2.70566,-0.39345 -4.03886,-0.69006 -2.81893,-0.62714 -5.47106,-1.56252 -8.21087,-2.45407 -4.03195,-1.43371 -7.94767,-3.16279 -11.81631,-4.98442 0,0 4.35417,-2.87042 4.35417,-2.87042 v 0 c 3.74645,1.90244 7.5628,3.67009 11.52003,5.09641 3.11272,1.00195 4.98828,1.69179 8.19494,2.37811 4.87467,1.04333 9.9068,1.43385 14.8782,1.08863 3.29341,-0.2291 6.59063,-0.54965 9.81693,-1.27686 1.25135,-0.36275 1.48206,-0.38644 2.67833,-0.9052 0.42894,-0.186 1.65288,-0.86753 1.26379,-0.60832 -1.06578,0.71004 -4.41791,2.59225 -3.30106,1.96559 0.0819,-0.046 12.2028,-7.08768 2.04247,-1.1852 1.29404,-0.74398 2.63881,-1.42946 3.74249,-2.45541 0.32588,-0.30293 0.61442,-0.64382 0.91358,-0.97317 0.30858,-0.33974 0.60627,-0.68921 0.9094,-1.03381 0.67381,-0.85993 1.06531,-1.33552 1.69211,-2.23206 0.73832,-1.05603 1.35923,-2.19905 2.20867,-3.17446 0,0 5.15106,-2.07913 5.15106,-2.07913 z" />
    <path
       style="opacity:1;fill:#008000;fill-opacity:1;stroke:#000000;stroke-width:0.26499999;stroke-miterlimit:4;stroke-dasharray:none;stroke-opacity:1"
       id="path1321"
       d="m 197.63331,217.00009 c 1.67474,0.25999 3.27232,0.79339 4.85663,1.38112 2.79479,1.22154 5.87727,1.51263 8.88297,1.78774 3.62056,0.25041 7.26282,0.41138 10.88298,0.0521 1.97132,-0.19563 2.34812,-0.3299 4.19405,-0.734 1.10272,-0.31938 1.76883,-0.46502 2.79353,-0.92637 0.37268,-0.16779 5.0862,-2.8312 -1.5791,0.90744 0,0 3.56543,-1.38259 3.56543,-1.38259 v 0 c -3.02725,1.76843 -4.47287,2.9105 -7.68853,3.60617 -1.83913,0.35244 -2.1701,0.4631 -4.13202,0.62289 -3.65563,0.29775 -7.32809,0.13327 -10.9845,-0.0419 -3.07427,-0.24486 -6.2019,-0.52705 -9.05825,-1.78368 -1.59036,-0.55945 -3.21476,-1.07971 -4.9101,-1.18079 0,0 3.17691,-2.30816 3.17691,-2.30816 z" />
    <path
       style="opacity:1;fill:#008000;fill-opacity:1;stroke:#000000;stroke-width:0.26499999;stroke-miterlimit:4;stroke-dasharray:none;stroke-opacity:1"
       id="path1323"
       d="m 69.324992,216.63056 c 0.464587,0.40455 1.014526,0.69035 1.503616,1.0604 0.949198,0.71816 2.073802,1.72767 2.94417,2.49642 3.601857,3.18135 0.246692,0.25726 4.034628,3.54106 3.01801,2.50069 6.148927,4.90623 9.510713,6.93166 2.026525,0.91387 4.294666,0.91038 6.476457,0.98217 0,0 -3.030831,2.18358 -3.030831,2.18358 v 0 c -2.238462,-0.10543 -4.579511,-0.0879 -6.625989,-1.11926 -3.249467,-2.1697 -6.295435,-4.64032 -9.308394,-7.12189 -0.892797,-0.75877 -3.186144,-2.71303 -4.118118,-3.48539 -1.465413,-1.21444 -2.946924,-2.42796 -4.655658,-3.28997 0,0 3.269406,-2.17878 3.269406,-2.17878 z" />
    <path
       style="opacity:1;fill:#008000;fill-opacity:1;stroke:#000000;stroke-width:0.26499999;stroke-miterlimit:4;stroke-dasharray:none;stroke-opacity:1"
       id="path1325"
       d="m 62.445198,216.64587 c -0.147238,0.22193 -0.279881,0.45426 -0.441717,0.66578 -0.262741,0.3434 -0.556535,0.66192 -0.830233,0.99665 -1.264512,1.54648 -2.529874,3.08235 -4.019386,4.42555 -0.65029,0.58641 -1.352373,1.11271 -2.02856,1.66906 -3.792178,2.70436 -7.830706,5.11759 -12.161525,6.8525 0,0 2.937375,-2.31033 2.937375,-2.31033 v 0 c 0.42359,-0.1702 0.852331,-0.32809 1.270767,-0.51059 0.52787,-0.23022 0.997418,-0.81086 1.567193,-0.72715 0.472207,0.0694 -1.622562,1.00299 -1.200007,0.7811 1.613368,-0.84723 2.799493,-1.73105 4.303252,-2.76429 0.666131,-0.5394 1.359543,-1.04675 1.998395,-1.61819 0.865759,-0.77441 2.142485,-2.15274 2.907512,-3.07314 0.336796,-0.40521 0.634346,-0.84165 0.962681,-1.25373 0.250476,-0.31437 0.529609,-0.60559 0.773385,-0.92518 0.147667,-0.1936 0.266012,-0.40789 0.399018,-0.61184 0,0 3.56185,-1.5962 3.56185,-1.5962 z" />
    <path
       style="opacity:1;fill:#008000;fill-opacity:1;stroke:#000000;stroke-width:0.26499999;stroke-miterlimit:4;stroke-dasharray:none;stroke-opacity:1"
       id="path1329"
       d="m 230.95294,213.59482 c 2.02777,1.74481 4.42555,2.99524 6.80409,4.18567 1.53691,0.77136 3.13674,1.39688 4.74407,2.00117 0,0 -2.12719,1.42743 -2.12719,1.42743 v 0 c -1.5825,-0.64385 -3.15757,-1.30602 -4.69031,-2.06319 -2.44725,-1.19864 -4.8913,-2.45061 -7.07338,-4.09846 0,0 2.34272,-1.45262 2.34272,-1.45262 z" />
  </g>
</svg>
